<?xml version="1.0" encoding="UTF-8"?>
<svg id="Layer_7" data-name="Layer 7" xmlns="http://www.w3.org/2000/svg" viewBox="0 0 600 600">
  <defs>
    <style>
      .cls-1 {
        fill: none;
        stroke: #000;
        stroke-miterlimit: 10;
        stroke-width: 1.13px;
      }

      .cls-2 {
        fill: red;
      }

      .cls-2, .cls-3, .cls-4, .cls-5, .cls-6, .cls-7 {
        opacity: .7;
        stroke-width: 0px;
      }

      .cls-3 {
        fill: lime;
      }

      .cls-4 {
        fill: blue;
      }

      .cls-5 {
        fill: #000;
      }

      .cls-6 {
        fill: #f2f2f2;
      }

      .cls-7 {
        fill: #666;
      }
    </style>
  </defs>
  <g>
    <path class="cls-5" d="M361.31,267.65v48.69c0,8.8-6.37,19.36-14.15,23.47l-216.88,114.47c-7.78,4.11-14.15.27-14.15-8.53v-48.69"/>
    <path class="cls-1" d="M361.31,267.65v48.69c0,8.8-6.37,19.36-14.15,23.47l-216.88,114.47c-7.78,4.11-14.15.27-14.15-8.53v-48.69"/>
  </g>
  <g>
    <path class="cls-7" d="M422.59,300v48.7c0,8.8-6.37,19.36-14.15,23.47l-216.88,114.47c-7.78,4.11-14.15.27-14.15-8.53v-48.7"/>
    <path class="cls-1" d="M422.59,300v48.7c0,8.8-6.37,19.36-14.15,23.47l-216.88,114.47c-7.78,4.11-14.15.27-14.15-8.53v-48.7"/>
  </g>
  <g>
    <path class="cls-6" d="M483.9,332.35v48.72c0,8.8-6.37,19.36-14.15,23.47l-216.88,114.47c-7.78,4.11-14.15.27-14.15-8.53v-48.72"/>
    <path class="cls-1" d="M483.9,332.35v48.72c0,8.8-6.37,19.36-14.15,23.47l-216.88,114.47c-7.78,4.11-14.15.27-14.15-8.53v-48.72"/>
  </g>
  <g>
    <path class="cls-4" d="M116.11,397.06l-47.15-24.89c-7.78-4.11-7.78-10.83,0-14.94l216.88-114.47c7.78-4.11,20.52-4.11,28.3,0l47.15,24.89"/>
    <path class="cls-1" d="M116.11,397.06l-47.15-24.89c-7.78-4.11-7.78-10.83,0-14.94l216.88-114.47c7.78-4.11,20.52-4.11,28.3,0l47.15,24.89"/>
  </g>
  <g>
    <polygon class="cls-4" points="177.41 429.41 422.59 300 361.3 267.65 116.11 397.06 177.41 429.41"/>
    <polygon class="cls-1" points="177.41 429.41 422.59 300 361.3 267.65 116.11 397.06 177.41 429.41"/>
  </g>
  <g>
    <polygon class="cls-4" points="238.71 461.76 483.89 332.35 422.59 300 177.41 429.41 238.71 461.76"/>
    <polygon class="cls-1" points="238.71 461.76 483.89 332.35 422.59 300 177.41 429.41 238.71 461.76"/>
  </g>
  <g>
    <path class="cls-4" d="M483.89,332.35l47.14,24.88c7.78,4.11,7.78,10.83,0,14.94l-216.88,114.47c-7.78,4.11-20.52,4.11-28.3,0l-47.14-24.88"/>
    <path class="cls-1" d="M483.89,332.35l47.14,24.88c7.78,4.11,7.78,10.83,0,14.94l-216.88,114.47c-7.78,4.11-20.52,4.11-28.3,0l-47.14-24.88"/>
  </g>
  <g>
    <polygon class="cls-5" points="116.11 397.06 361.3 267.65 361.34 202.94 116.13 332.37 116.11 397.06"/>
    <polygon class="cls-1" points="116.11 397.06 361.3 267.65 361.34 202.94 116.13 332.37 116.11 397.06"/>
  </g>
  <g>
    <polygon class="cls-7" points="177.41 429.41 422.59 300 422.59 235.29 177.41 364.71 177.41 429.41"/>
    <polygon class="cls-1" points="177.41 429.41 422.59 300 422.59 235.29 177.41 364.71 177.41 429.41"/>
  </g>
  <g>
    <polygon class="cls-6" points="483.89 332.35 238.71 461.76 238.72 397.07 483.86 267.63 483.89 332.35"/>
    <polygon class="cls-1" points="483.89 332.35 238.71 461.76 238.72 397.07 483.86 267.63 483.89 332.35"/>
  </g>
  <g>
    <path class="cls-3" d="M116.13,332.36l-47.16-24.89c-7.78-4.11-7.78-10.83,0-14.94l216.88-114.47c7.78-4.11,20.52-4.11,28.3,0l47.18,24.9"/>
    <path class="cls-1" d="M116.13,332.36l-47.16-24.89c-7.78-4.11-7.78-10.83,0-14.94l216.88-114.47c7.78-4.11,20.52-4.11,28.3,0l47.18,24.9"/>
  </g>
  <g>
    <polygon class="cls-3" points="116.13 332.37 361.34 202.94 422.59 235.29 177.41 364.71 116.13 332.37"/>
    <polygon class="cls-1" points="116.13 332.37 361.34 202.94 422.59 235.29 177.41 364.71 116.13 332.37"/>
  </g>
  <g>
    <polygon class="cls-3" points="238.72 397.07 483.86 267.63 422.59 235.29 177.41 364.71 238.72 397.07"/>
    <polygon class="cls-1" points="238.72 397.07 483.86 267.63 422.59 235.29 177.41 364.71 238.72 397.07"/>
  </g>
  <g>
    <path class="cls-3" d="M483.86,267.63l47.17,24.9c7.78,4.11,7.78,10.83,0,14.94l-216.88,114.47c-7.78,4.11-20.52,4.11-28.3,0l-47.13-24.88"/>
    <path class="cls-1" d="M483.86,267.63l47.17,24.9c7.78,4.11,7.78,10.83,0,14.94l-216.88,114.47c-7.78,4.11-20.52,4.11-28.3,0l-47.13-24.88"/>
  </g>
  <g>
    <polygon class="cls-5" points="116.13 332.37 361.34 202.94 361.3 138.24 116.11 267.65 116.13 332.37"/>
    <polygon class="cls-1" points="116.13 332.37 361.34 202.94 361.3 138.24 116.11 267.65 116.13 332.37"/>
  </g>
  <g>
    <polygon class="cls-7" points="177.41 364.71 422.59 235.29 422.59 170.59 177.41 300 177.41 364.71"/>
    <polygon class="cls-1" points="177.41 364.71 422.59 235.29 422.59 170.59 177.41 300 177.41 364.71"/>
  </g>
  <g>
    <polygon class="cls-6" points="483.86 267.63 238.72 397.07 238.71 332.35 483.89 202.94 483.86 267.63"/>
    <polygon class="cls-1" points="483.86 267.63 238.72 397.07 238.71 332.35 483.89 202.94 483.86 267.63"/>
  </g>
  <g>
    <path class="cls-2" d="M116.11,267.65l-47.15-24.88c-7.78-4.11-7.78-10.83,0-14.94l216.88-114.47c7.78-4.11,20.52-4.11,28.3,0l47.15,24.88"/>
    <path class="cls-1" d="M116.11,267.65l-47.15-24.88c-7.78-4.11-7.78-10.83,0-14.94l216.88-114.47c7.78-4.11,20.52-4.11,28.3,0l47.15,24.88"/>
  </g>
  <g>
    <path class="cls-5" d="M116.13,267.65v-48.72c0-8.8,6.37-19.36,14.15-23.47l216.88-114.47c7.78-4.11,14.15-.27,14.15,8.53v48.72"/>
    <path class="cls-1" d="M116.13,267.65v-48.72c0-8.8,6.37-19.36,14.15-23.47l216.88-114.47c7.78-4.11,14.15-.27,14.15,8.53v48.72"/>
  </g>
  <g>
    <polygon class="cls-2" points="177.41 300 422.59 170.59 361.3 138.24 116.11 267.65 177.41 300"/>
    <polygon class="cls-1" points="177.41 300 422.59 170.59 361.3 138.24 116.11 267.65 177.41 300"/>
  </g>
  <g>
    <path class="cls-7" d="M177.41,300v-48.71c0-8.8,6.37-19.36,14.15-23.47l216.88-114.47c7.78-4.11,14.15-.27,14.15,8.53v48.71"/>
    <path class="cls-1" d="M177.41,300v-48.71c0-8.8,6.37-19.36,14.15-23.47l216.88-114.47c7.78-4.11,14.15-.27,14.15,8.53v48.71"/>
  </g>
  <g>
    <polygon class="cls-2" points="177.41 300 422.59 170.59 483.89 202.94 238.71 332.35 177.41 300"/>
    <polygon class="cls-1" points="177.41 300 422.59 170.59 483.89 202.94 238.71 332.35 177.41 300"/>
  </g>
  <g>
    <path class="cls-6" d="M238.72,332.35v-48.69c0-8.8,6.37-19.36,14.15-23.47l216.88-114.47c7.78-4.11,14.15-.27,14.15,8.53v48.69"/>
    <path class="cls-1" d="M238.72,332.35v-48.69c0-8.8,6.37-19.36,14.15-23.47l216.88-114.47c7.78-4.11,14.15-.27,14.15,8.53v48.69"/>
  </g>
  <g>
    <path class="cls-2" d="M483.89,202.94l47.15,24.88c7.78,4.11,7.78,10.83,0,14.94l-216.88,114.47c-7.78,4.11-20.52,4.11-28.3,0l-47.15-24.88"/>
    <path class="cls-1" d="M483.89,202.94l47.15,24.88c7.78,4.11,7.78,10.83,0,14.94l-216.88,114.47c-7.78,4.11-20.52,4.11-28.3,0l-47.15-24.88"/>
  </g>
  <line class="cls-1" x1="238.71" y1="332.35" x2="483.89" y2="202.94"/>
</svg>